# File created by Blade
# Date/Time:  Thu Sep 25 19:43:58 2014
# Frame Rate: 120.000 fps
#------------------------------------------------------
:FULLY-SPECIFIED
:DEGREES
1091
root -2.414571 24.660083 -9.830234 32.388789 28.011686 -22.332564
Spine 14.700596 0.302567 -18.123973
Head -61.405169 6.451900 27.352187
LeftShoulder 3.618580 6.625011 22.232591
LeftArm 32.271075 6.851021 -27.477906
LeftForeArm 13.761033 -0.000000 21.145225
LeftHand -23.344782 -0.000000 8.045004
LeftHandThumb1 -26.253704 0.000000 33.147579
RightShoulder -12.822328 26.990013 -32.878310
RightArm 4.127768 18.261587 45.128686
RightForeArm 14.512615 -0.000000 18.869794
RightHand 0.272367 -0.000000 -1.297095
RightHandThumb1 -24.326973 -0.000000 -32.862282
LeftUpLeg -91.996676 32.824683 28.263346
LeftLeg 62.133261 -0.000000 -0.000000
LeftFoot -13.658195 5.435919 -22.773763
LeftToeBase 9.480908 -0.000000 -0.000000
RightUpLeg -57.464862 -23.885293 -8.674591
RightLeg 62.896163 -0.000000 -0.000000
RightFoot -4.466837 -21.031114 11.258570
RightToeBase -2.052917 -0.000000 0.000000
1092
root -2.543355 24.722567 -9.841463 32.655687 27.587986 -21.478258
Spine 14.438483 0.208151 -17.845697
Head -61.549592 6.220801 26.857606
LeftShoulder 3.599835 6.763607 22.069437
LeftArm 32.146421 6.651446 -28.847505
LeftForeArm 14.360931 -0.000000 21.489194
LeftHand -23.137852 -0.000000 7.371213
LeftHandThumb1 -26.253704 0.000000 33.147579
RightShoulder -12.557462 27.175738 -32.620121
RightArm 4.079791 17.725498 45.815120
RightForeArm 14.818311 -0.000000 18.580248
RightHand 0.013178 -0.000000 -1.070026
RightHandThumb1 -24.326973 -0.000000 -32.862282
LeftUpLeg -91.000972 32.479326 28.269910
LeftLeg 61.205690 -0.000000 -0.000000
LeftFoot -13.303768 5.959861 -23.227846
LeftToeBase 9.572825 -0.000000 -0.000000
RightUpLeg -59.503782 -24.056997 -7.879330
RightLeg 65.907145 -0.000000 -0.000000
RightFoot -6.785743 -17.905525 13.205510
RightToeBase -3.424668 -0.000000 0.000000
1093
root -2.678552 24.776345 -9.845523 32.912243 27.168923 -20.614764
Spine 14.162359 0.164116 -17.495428
Head -61.751340 5.927155 26.127707
LeftShoulder 3.532059 6.767349 21.716649
LeftArm 32.035984 6.755962 -29.958878
LeftForeArm 14.740231 -0.000000 21.844500
LeftHand -23.081780 -0.000000 7.188701
LeftHandThumb1 -26.253704 0.000000 33.147579
RightShoulder -12.364049 26.937334 -32.426186
RightArm 4.387982 17.433297 46.719331
RightForeArm 14.913044 -0.000000 18.331054
RightHand 0.153009 -0.000000 -0.705086
RightHandThumb1 -24.326973 -0.000000 -32.862282
LeftUpLeg -90.058998 32.163969 28.174757
LeftLeg 60.269106 -0.000000 -0.000000
LeftFoot -12.979440 6.480753 -23.749031
LeftToeBase 9.743184 -0.000000 -0.000000
RightUpLeg -61.450310 -24.104170 -7.084530
RightLeg 68.638075 -0.000000 -0.000000
RightFoot -8.517515 -14.446970 15.960548
RightToeBase -6.429309 -0.000000 0.000000
1094
root -2.830270 24.817582 -9.836979 33.044362 26.811853 -19.821528
Spine 13.945236 0.252117 -17.015400
Head -61.989440 5.592125 25.361269
LeftShoulder 3.530022 6.815196 21.392214
LeftArm 31.931074 7.022376 -30.938161
LeftForeArm 14.904897 -0.000000 22.363270
LeftHand -23.199149 0.000000 7.403918
LeftHandThumb1 -26.253704 0.000000 33.147579
RightShoulder -12.360415 27.157962 -32.431076
RightArm 4.396750 16.450256 47.474014
RightForeArm 15.135972 -0.000000 17.968757
RightHand 0.511996 -0.000000 -0.411997
RightHandThumb1 -24.326973 -0.000000 -32.862282
LeftUpLeg -89.111723 31.891959 28.109831
LeftLeg 59.348997 -0.000000 -0.000000
LeftFoot -12.594477 6.902834 -24.211761
LeftToeBase 9.878184 -0.000000 -0.000000
RightUpLeg -63.209343 -24.051159 -6.189613
RightLeg 71.135233 -0.000000 -0.000000
RightFoot -9.579232 -11.009365 18.327039
RightToeBase -8.318133 -0.000000 0.000000
1095
root -2.993383 24.853055 -9.814670 33.089032 26.504346 -19.072280
Spine 13.794069 0.455510 -16.395357
Head -62.337304 5.145864 24.439751
LeftShoulder 3.537637 6.701714 20.904339
LeftArm 31.795301 7.594166 -31.629234
LeftForeArm 14.945941 -0.000000 22.929775
LeftHand -23.271716 -0.000000 7.815157
LeftHandThumb1 -26.253704 0.000000 33.147579
RightShoulder -12.216045 26.791872 -32.466892
RightArm 4.443820 16.308253 48.418408
RightForeArm 14.922313 0.000000 18.071858
RightHand 0.353056 0.000000 0.206160
RightHandThumb1 -24.326973 -0.000000 -32.862282
LeftUpLeg -88.152214 31.662702 28.024554
LeftLeg 58.407597 -0.000000 -0.000000
LeftFoot -12.151866 7.237474 -24.700591
LeftToeBase 10.052563 -0.000000 -0.000000
RightUpLeg -64.796342 -23.882113 -5.169046
RightLeg 73.305379 -0.000000 -0.000000
RightFoot -9.986662 -7.768855 19.334776
RightToeBase -9.418114 -0.000000 0.000000
1096
root -3.162713 24.880320 -9.782358 33.101823 26.227855 -18.283466
Spine 13.638717 0.533108 -15.902696
Head -62.407473 4.884351 23.755154
LeftShoulder 3.403678 6.769269 20.574040
LeftArm 31.782747 7.939977 -32.560743
LeftForeArm 14.806657 -0.000000 23.377578
LeftHand -23.371705 -0.000000 8.413043
LeftHandThumb1 -26.253704 0.000000 33.147579
RightShoulder -12.076056 26.729838 -32.339343
RightArm 4.707844 15.334049 49.197097
RightForeArm 15.240283 0.000000 17.707655
RightHand 0.457870 -0.000000 0.374799
RightHandThumb1 -24.326973 -0.000000 -32.862282
LeftUpLeg -87.211220 31.436189 27.847846
LeftLeg 57.462999 -0.000000 -0.000000
LeftFoot -11.682617 7.516137 -25.214425
LeftToeBase 10.112549 -0.000000 -0.000000
RightUpLeg -66.181551 -23.632712 -4.167807
RightLeg 75.135624 -0.000000 -0.000000
RightFoot -9.716985 -4.656395 19.508728
RightToeBase -11.430097 -0.000000 0.000000
1097
root -3.335830 24.893101 -9.743231 33.032227 25.963870 -17.476625
Spine 13.531005 0.716902 -15.359789
Head -62.520539 4.544104 23.069618
LeftShoulder 3.289013 6.864612 20.268519
LeftArm 31.798814 8.144351 -33.693585
LeftForeArm 15.136742 -0.000000 23.841903
LeftHand -23.128540 0.000000 6.827231
LeftHandThumb1 -26.253704 0.000000 33.147579
RightShoulder -11.891764 26.785096 -32.289445
RightArm 4.596916 14.554370 49.936048
RightForeArm 15.254771 -0.000000 17.696755
RightHand 0.475546 0.000000 0.540984
RightHandThumb1 -24.326973 -0.000000 -32.862282
LeftUpLeg -86.251799 31.176721 27.706390
LeftLeg 56.640577 -0.000000 -0.000000
LeftFoot -11.155740 7.734900 -25.703421
LeftToeBase 10.127012 -0.000000 -0.000000
RightUpLeg -67.293362 -23.327046 -3.230751
RightLeg 76.586636 -0.000000 -0.000000
RightFoot -9.128209 -1.358254 20.130969
RightToeBase -13.048967 -0.000000 0.000000
1098
root -3.510612 24.898487 -9.697559 32.929212 25.673877 -16.621266
Spine 13.472363 1.003905 -14.878589
Head -62.715847 4.258444 22.449277
LeftShoulder 3.217455 6.937012 19.923499
LeftArm 31.800569 8.711922 -34.456860
LeftForeArm 15.172562 -0.000000 24.340293
LeftHand -23.335339 0.000000 8.132224
LeftHandThumb1 -26.253704 0.000000 33.147579
RightShoulder -11.791306 26.668603 -32.198017
RightArm 4.704513 13.878479 50.739617
RightForeArm 15.469771 -0.000000 17.649610
RightHand 0.348904 -0.000000 0.619746
RightHandThumb1 -24.326973 -0.000000 -32.862282
LeftUpLeg -85.236842 30.903202 27.532599
LeftLeg 55.801701 -0.000000 -0.000000
LeftFoot -10.727332 7.967872 -26.305020
LeftToeBase 10.118480 -0.000000 -0.000000
RightUpLeg -68.177069 -22.943006 -2.340253
RightLeg 77.592024 -0.000000 -0.000000
RightFoot -8.348203 1.863433 20.672802
RightToeBase -14.339851 -0.000000 0.000000
1099
root -3.679971 24.892314 -9.641518 32.738389 25.418874 -15.716221
Spine 13.505629 1.275111 -14.382419
Head -62.855389 3.871550 21.751811
LeftShoulder 3.111152 7.046681 19.498562
LeftArm 31.787182 9.214803 -35.212044
LeftForeArm 15.009839 0.000000 24.918189
LeftHand -23.463758 -0.000000 7.808583
LeftHandThumb1 -26.253704 0.000000 33.147579
RightShoulder -11.660381 26.611328 -32.094445
RightArm 4.821764 13.017925 51.508541
RightForeArm 15.988526 -0.000000 17.456409
RightHand 0.570416 -0.000000 0.482189
RightHandThumb1 -24.326973 -0.000000 -32.862282
LeftUpLeg -84.207050 30.569128 27.318603
LeftLeg 55.056583 -0.000000 -0.000000
LeftFoot -10.273487 8.155508 -26.755128
LeftToeBase 10.146284 -0.000000 -0.000000
RightUpLeg -68.760475 -22.633985 -1.341828
RightLeg 78.094082 -0.000000 -0.000000
RightFoot -7.722750 3.468170 19.137486
RightToeBase -19.823496 -0.000000 0.000000
1100
root -3.845300 24.873083 -9.579680 32.523761 25.198512 -14.698073
Spine 13.582456 1.505526 -13.952660
Head -62.916258 3.440507 21.103657
LeftShoulder 3.073424 7.071798 19.146594
LeftArm 31.553912 9.397328 -36.418588
LeftForeArm 15.158189 -0.000000 25.463034
LeftHand -23.388182 0.000000 7.773742
LeftHandThumb1 -26.253704 0.000000 33.147579
RightShoulder -11.436679 26.625552 -31.970824
RightArm 4.731054 12.382803 52.280640
RightForeArm 16.455712 -0.000000 17.435897
RightHand 0.695845 -0.000000 0.365840
RightHandThumb1 -24.326973 -0.000000 -32.862282
LeftUpLeg -83.137974 30.101080 27.097312
LeftLeg 54.359242 -0.000000 -0.000000
LeftFoot -9.924544 8.367163 -27.086174
LeftToeBase 10.315585 -0.000000 -0.000000
RightUpLeg -69.148737 -22.457561 -0.420724
RightLeg 78.697619 -0.000000 -0.000000
RightFoot -11.748029 -3.752832 18.451200
RightToeBase -28.051851 -0.000000 0.000000
1101
root -3.996999 24.847711 -9.519712 32.370083 24.945862 -13.559437
Spine 13.619211 1.669050 -13.613040
Head -62.955419 2.876808 20.404838
LeftShoulder 2.954285 7.164715 18.699781
LeftArm 31.320532 9.532315 -37.600672
LeftForeArm 15.281543 0.000000 25.994428
LeftHand -23.472416 0.000000 7.814779
LeftHandThumb1 -26.253704 0.000000 33.147579
RightShoulder -11.144756 26.619807 -31.787458
RightArm 4.660374 11.887067 53.088000
RightForeArm 16.676430 -0.000000 17.531778
RightHand 0.657148 -0.000000 0.043018
RightHandThumb1 -24.326973 -0.000000 -32.862282
LeftUpLeg -82.114516 29.577100 26.726619
LeftLeg 53.698563 -0.000000 -0.000000
LeftFoot -9.631159 8.627748 -27.365866
LeftToeBase 10.399410 -0.000000 -0.000000
RightUpLeg -69.279841 -22.255781 -0.180911
RightLeg 79.777163 -0.000000 -0.000000
RightFoot -15.494443 -9.037609 17.828577
RightToeBase -20.519812 -0.000000 0.000000
1102
root -4.144133 24.811445 -9.459469 32.166836 24.673068 -12.348579
Spine 13.689011 1.917202 -13.301805
Head -62.889109 2.194169 19.612864
LeftShoulder 2.939867 7.332775 18.238650
LeftArm 31.080254 9.642340 -38.725725
LeftForeArm 15.202821 -0.000000 26.482116
LeftHand -23.624414 0.000000 8.514607
LeftHandThumb1 -26.253704 0.000000 33.147579
RightShoulder -10.857182 26.648465 -31.649303
RightArm 4.437448 11.505489 53.891605
RightForeArm 16.761270 -0.000000 17.681206
RightHand 0.906063 -0.000000 0.220521
RightHandThumb1 -24.326973 -0.000000 -32.862282
LeftUpLeg -81.048912 28.993882 26.337505
LeftLeg 53.108809 -0.000000 -0.000000
LeftFoot -9.340562 8.855547 -27.578599
LeftToeBase 10.483866 -0.000000 -0.000000
RightUpLeg -68.844913 -21.917915 -0.696386
RightLeg 80.529508 -0.000000 -0.000000
RightFoot -17.436979 -11.505723 17.651913
RightToeBase -13.720727 -0.000000 0.000000
1103
root -4.279583 24.763907 -9.399077 32.045426 24.290316 -11.005779
Spine 13.619557 2.172059 -13.184792
Head -62.621254 1.400976 18.862190
LeftShoulder 2.824532 7.700478 17.837925
LeftArm 30.954063 9.605367 -39.935742
LeftForeArm 15.093624 -0.000000 26.919908
LeftHand -23.571916 -0.000000 8.551844
LeftHandThumb1 -26.253704 0.000000 33.147579
RightShoulder -10.400499 26.471549 -31.396515
RightArm 4.234089 11.306618 54.702366
RightForeArm 16.432233 -0.000000 17.951916
RightHand 0.865050 0.000000 0.573399
RightHandThumb1 -24.326973 -0.000000 -32.862282
LeftUpLeg -79.995264 28.400729 25.839985
LeftLeg 52.608646 -0.000000 -0.000000
LeftFoot -9.118951 9.114743 -27.800495
LeftToeBase 10.460859 -0.000000 -0.000000
RightUpLeg -68.215988 -21.544545 -1.767774
RightLeg 81.079104 -0.000000 -0.000000
RightFoot -19.805364 -12.845968 19.266217
RightToeBase -9.199579 -0.000000 0.000000
